<svg xmlns="http://www.w3.org/2000/svg" xmlns:xlink="http://www.w3.org/1999/xlink" width="1080" zoomAndPan="magnify" viewBox="0 0 810 809.999993" height="1080" preserveAspectRatio="xMidYMid meet" version="1.0"><defs><clipPath id="9e9ab0d09d"><path d="M 415 50.339844 L 614 50.339844 L 614 249 L 415 249 Z M 415 50.339844 " clip-rule="nonzero"/></clipPath><clipPath id="c36b72da01"><path d="M 56 292 L 762.707031 292 L 762.707031 759.839844 L 56 759.839844 Z M 56 292 " clip-rule="nonzero"/></clipPath></defs><rect x="-81" width="972" fill="#ffffff" y="-80.999999" height="971.999992" fill-opacity="1"/><rect x="-81" width="972" fill="#ffffff" y="-80.999999" height="971.999992" fill-opacity="1"/><g clip-path="url(#9e9ab0d09d)"><path fill="#004aad" d="M 421.605469 172.125 L 435.820312 172.125 C 437.464844 177.957031 439.859375 183.492188 442.703125 188.730469 L 432.675781 198.753906 C 431.480469 199.949219 430.882812 201.449219 430.882812 202.945312 C 430.882812 204.441406 431.480469 206.085938 432.675781 207.132812 L 456.617188 231.070312 C 459.007812 233.464844 462.75 233.464844 465.144531 231.070312 L 475.167969 221.046875 C 480.402344 223.890625 486.089844 226.28125 491.773438 227.929688 L 491.773438 242.140625 C 491.773438 245.433594 494.46875 248.125 497.757812 248.125 L 531.570312 248.125 C 534.863281 248.125 537.554688 245.433594 537.554688 242.140625 L 537.554688 227.929688 C 543.390625 226.28125 548.925781 223.890625 554.164062 221.046875 L 564.1875 231.070312 C 566.582031 233.464844 570.320312 233.464844 572.714844 231.070312 L 596.652344 207.132812 C 597.847656 205.9375 598.449219 204.441406 598.449219 202.945312 C 598.449219 201.449219 597.847656 199.800781 596.652344 198.753906 L 586.628906 188.730469 C 589.472656 183.492188 591.863281 177.808594 593.511719 172.125 L 607.722656 172.125 C 611.015625 172.125 613.707031 169.429688 613.707031 166.140625 L 613.707031 132.328125 C 613.707031 129.035156 611.015625 126.34375 607.722656 126.34375 L 593.511719 126.34375 C 591.863281 120.507812 589.472656 114.972656 586.628906 109.734375 L 596.652344 99.710938 C 597.847656 98.515625 598.449219 97.019531 598.449219 95.523438 C 598.449219 94.027344 597.847656 92.378906 596.652344 91.332031 L 572.714844 67.394531 C 570.320312 65 566.582031 65 564.1875 67.394531 L 554.164062 77.417969 C 548.925781 74.574219 543.242188 72.183594 537.554688 70.535156 L 537.554688 56.324219 C 537.554688 53.03125 534.863281 50.339844 531.570312 50.339844 L 497.757812 50.339844 C 494.46875 50.339844 491.773438 53.03125 491.773438 56.324219 L 491.773438 70.535156 C 485.9375 72.183594 480.402344 74.574219 475.167969 77.417969 L 465.144531 67.394531 C 462.75 65 459.007812 65 456.617188 67.394531 L 432.675781 91.332031 C 431.480469 92.53125 430.882812 94.027344 430.882812 95.523438 C 430.882812 97.019531 431.480469 98.664062 432.675781 99.710938 L 442.703125 109.734375 C 439.859375 114.972656 437.464844 120.65625 435.820312 126.34375 L 421.605469 126.34375 C 418.316406 126.34375 415.621094 129.035156 415.621094 132.328125 L 415.621094 166.140625 C 415.621094 169.429688 418.316406 172.125 421.605469 172.125 Z M 427.589844 138.3125 L 440.457031 138.3125 C 443.300781 138.3125 445.695312 136.367188 446.292969 133.671875 C 448.085938 125.894531 451.078125 118.710938 455.269531 111.980469 C 456.765625 109.585938 456.464844 106.59375 454.371094 104.5 L 445.246094 95.371094 L 460.65625 79.960938 L 469.78125 89.089844 C 471.726562 91.035156 474.867188 91.480469 477.261719 89.984375 C 483.996094 85.796875 491.324219 82.804688 498.957031 81.007812 C 501.648438 80.410156 503.59375 78.015625 503.59375 75.175781 L 503.59375 62.308594 L 525.4375 62.308594 L 525.4375 75.175781 C 525.4375 78.015625 527.382812 80.410156 530.074219 81.007812 C 537.855469 82.804688 545.035156 85.796875 551.769531 89.984375 C 554.164062 91.480469 557.15625 91.183594 559.25 89.089844 L 568.375 79.960938 L 583.785156 95.371094 L 574.660156 104.5 C 572.714844 106.445312 572.265625 109.585938 573.761719 111.980469 C 577.949219 118.710938 580.941406 126.042969 582.738281 133.671875 C 583.335938 136.367188 585.730469 138.3125 588.574219 138.3125 L 601.441406 138.3125 L 601.441406 160.152344 L 588.574219 160.152344 C 585.730469 160.152344 583.335938 162.097656 582.738281 164.792969 C 580.941406 172.570312 577.949219 179.753906 573.761719 186.484375 C 572.265625 188.878906 572.566406 191.871094 574.660156 193.964844 L 583.785156 203.09375 L 568.375 218.503906 L 559.25 209.375 C 557.304688 207.433594 554.164062 206.984375 551.769531 208.480469 C 545.035156 212.667969 537.707031 215.660156 530.074219 217.457031 C 527.382812 218.054688 525.4375 220.449219 525.4375 223.289062 L 525.4375 236.15625 L 503.59375 236.15625 L 503.59375 223.289062 C 503.59375 220.449219 501.648438 218.054688 498.957031 217.457031 C 491.175781 215.660156 483.996094 212.667969 477.261719 208.480469 C 474.867188 206.984375 471.875 207.28125 469.78125 209.375 L 460.65625 218.503906 L 445.246094 203.09375 L 454.371094 193.964844 C 456.316406 192.023438 456.765625 188.878906 455.269531 186.484375 C 451.078125 179.753906 448.085938 172.421875 446.292969 164.792969 C 445.695312 162.097656 443.300781 160.152344 440.457031 160.152344 L 427.589844 160.152344 Z M 427.589844 138.3125 " fill-opacity="1" fill-rule="nonzero"/></g><path fill="#004aad" d="M 514.515625 190.078125 C 537.105469 190.078125 555.359375 171.824219 555.359375 149.234375 C 555.359375 126.640625 537.105469 108.386719 514.515625 108.386719 C 491.925781 108.386719 473.671875 126.640625 473.671875 149.234375 C 473.671875 171.824219 492.074219 190.078125 514.515625 190.078125 Z M 514.515625 120.355469 C 530.375 120.355469 543.390625 133.375 543.390625 149.234375 C 543.390625 165.089844 530.375 178.109375 514.515625 178.109375 C 498.65625 178.109375 485.640625 165.089844 485.640625 149.234375 C 485.640625 133.375 498.65625 120.355469 514.515625 120.355469 Z M 514.515625 120.355469 " fill-opacity="1" fill-rule="nonzero"/><path fill="#004aad" d="M 129.113281 432.898438 C 139.136719 436.039062 149.3125 437.535156 159.484375 437.535156 C 175.34375 437.535156 191.054688 433.796875 205.566406 426.164062 C 229.355469 413.898438 246.859375 392.953125 254.9375 367.515625 C 262.71875 342.832031 260.472656 317.398438 250.449219 295.554688 L 265.558594 287.625 L 284.410156 293.609375 C 285.011719 293.757812 285.609375 293.90625 286.207031 293.90625 C 287.105469 293.90625 288.152344 293.609375 288.898438 293.160156 L 316.726562 278.648438 C 318.824219 277.601562 320.167969 275.207031 319.871094 272.8125 C 319.71875 270.417969 318.074219 268.324219 315.679688 267.574219 L 300.269531 262.640625 L 305.207031 247.230469 C 305.957031 244.984375 305.207031 242.441406 303.414062 240.796875 C 301.617188 239.300781 298.925781 239 296.828125 240.046875 L 269 254.558594 C 267.65625 255.308594 266.609375 256.503906 266.007812 258 L 260.023438 276.851562 L 244.765625 284.78125 C 232.644531 264.882812 213.496094 249.171875 189.707031 241.691406 C 137.042969 225.085938 80.640625 254.261719 64.03125 306.925781 C 47.277344 359.886719 76.449219 416.289062 129.113281 432.898438 Z M 276.480469 264.433594 L 289.347656 257.703125 L 286.953125 265.03125 C 285.90625 268.175781 287.703125 271.617188 290.84375 272.511719 L 298.175781 274.90625 L 285.308594 281.640625 L 272.292969 277.449219 Z M 75.253906 310.964844 C 87.074219 273.410156 121.933594 249.324219 159.335938 249.324219 C 168.164062 249.324219 176.988281 250.667969 185.816406 253.363281 C 206.613281 259.945312 223.070312 273.410156 233.84375 290.617188 L 209.605469 303.183594 C 202.125 292.261719 191.203125 283.585938 177.589844 279.246094 C 145.570312 269.070312 111.308594 286.875 101.136719 318.894531 C 90.960938 350.910156 108.765625 385.171875 140.785156 395.34375 C 146.769531 397.289062 153.050781 398.1875 159.1875 398.1875 C 168.761719 398.1875 178.335938 395.945312 187.164062 391.304688 C 201.527344 383.824219 212.296875 371.109375 217.085938 355.699219 C 221.574219 341.335938 220.527344 326.523438 215.140625 313.65625 L 239.378906 301.089844 C 248.054688 320.238281 250 342.382812 243.117188 363.925781 C 236.085938 386.367188 220.527344 404.769531 199.730469 415.542969 C 178.785156 426.464844 154.996094 428.410156 132.554688 421.378906 C 86.472656 406.863281 60.589844 357.195312 75.253906 310.964844 Z M 153.949219 338.941406 C 154.996094 341.035156 157.089844 342.234375 159.335938 342.234375 C 160.234375 342.234375 161.28125 342.082031 162.027344 341.484375 L 175.644531 334.453125 C 176.09375 336.996094 175.941406 339.839844 175.195312 342.53125 C 172.5 351.210938 163.074219 356.148438 154.398438 353.304688 C 145.722656 350.609375 140.785156 341.183594 143.625 332.507812 C 145.871094 325.476562 152.453125 320.988281 159.484375 320.988281 C 161.128906 320.988281 162.777344 321.285156 164.421875 321.734375 C 166.21875 322.335938 167.863281 323.230469 169.359375 324.277344 L 156.492188 331.011719 C 153.5 332.507812 152.453125 336.097656 153.949219 338.941406 Z M 168.011719 310.214844 C 153.050781 305.429688 136.894531 313.804688 132.253906 328.765625 C 127.46875 343.730469 135.847656 359.886719 150.808594 364.523438 C 153.648438 365.421875 156.492188 365.871094 159.335938 365.871094 C 171.453125 365.871094 182.675781 358.089844 186.566406 345.972656 C 188.359375 340.136719 188.210938 334.152344 186.566406 328.765625 L 204.816406 319.34375 C 208.855469 329.515625 209.605469 341.035156 206.015625 352.257812 C 202.125 364.675781 193.445312 374.847656 181.925781 380.980469 C 170.40625 387.117188 157.089844 388.164062 144.671875 384.273438 C 118.941406 376.195312 104.578125 348.664062 112.804688 322.933594 C 119.390625 302.136719 138.6875 288.820312 159.484375 288.820312 C 164.421875 288.820312 169.359375 289.570312 174.148438 291.066406 C 184.621094 294.355469 193.148438 300.789062 198.984375 309.019531 L 180.582031 318.59375 C 177.289062 314.703125 172.949219 311.859375 168.011719 310.214844 Z M 168.011719 310.214844 " fill-opacity="1" fill-rule="nonzero"/><path fill="#004aad" d="M 213.34375 194.117188 C 215.890625 200.550781 222.023438 204.441406 228.605469 204.441406 C 230.550781 204.441406 232.644531 204.140625 234.589844 203.242188 L 248.054688 197.855469 L 260.023438 228.078125 C 260.621094 229.574219 261.820312 230.769531 263.167969 231.371094 C 263.914062 231.667969 264.664062 231.820312 265.558594 231.820312 C 266.308594 231.820312 267.054688 231.667969 267.804688 231.371094 L 289.347656 222.84375 C 292.042969 221.792969 293.6875 218.953125 292.9375 215.960938 L 287.105469 188.429688 L 390.1875 166.4375 C 391.832031 166.140625 393.328125 164.941406 394.226562 163.445312 C 395.125 161.949219 395.125 160.003906 394.527344 158.359375 L 354.878906 58.117188 C 354.28125 56.472656 352.933594 55.277344 351.289062 54.675781 C 349.640625 54.078125 347.847656 54.378906 346.351562 55.277344 L 226.363281 127.390625 L 207.808594 134.71875 C 199.429688 138.011719 195.242188 147.585938 198.683594 155.964844 Z M 280.074219 213.863281 L 268.851562 218.351562 L 259.574219 194.714844 L 275.285156 191.421875 Z M 346.203125 69.339844 L 380.613281 156.5625 L 255.085938 183.492188 L 254.191406 181.101562 L 236.234375 135.765625 Z M 211.847656 146.089844 L 225.316406 140.703125 L 243.566406 186.933594 L 230.101562 192.320312 C 227.859375 193.21875 225.316406 192.171875 224.417969 189.925781 L 209.457031 151.925781 C 208.558594 149.53125 209.605469 146.988281 211.847656 146.089844 Z M 211.847656 146.089844 " fill-opacity="1" fill-rule="nonzero"/><g clip-path="url(#c36b72da01)"><path fill="#004aad" d="M 748.660156 625.449219 L 632.859375 474.042969 C 614.90625 450.550781 586.480469 436.488281 556.855469 436.488281 L 433.574219 436.488281 L 433.574219 423.921875 C 447.191406 421.078125 457.511719 409.109375 457.511719 394.597656 L 457.511719 357.644531 C 462.75 358.390625 468.136719 358.691406 473.371094 358.691406 L 475.464844 358.691406 C 478.757812 358.691406 481.449219 355.996094 481.449219 352.707031 L 481.449219 328.46875 C 481.449219 308.867188 465.441406 292.859375 445.84375 292.859375 L 402.90625 292.859375 C 383.453125 292.859375 367.746094 308.570312 367.746094 328.019531 L 367.746094 376.644531 C 367.746094 376.644531 367.746094 376.644531 367.746094 376.792969 C 367.746094 387.863281 375.375 397.289062 385.699219 399.832031 L 385.699219 436.488281 L 262.417969 436.488281 C 232.796875 436.488281 204.367188 450.550781 186.414062 474.042969 L 70.617188 625.449219 C 61.488281 637.269531 56.550781 652.078125 56.550781 667.042969 C 56.550781 704.894531 87.222656 735.5625 125.222656 735.5625 L 236.085938 735.414062 L 236.085938 753.667969 C 236.085938 756.957031 238.78125 759.652344 242.070312 759.652344 L 577.203125 759.652344 C 580.496094 759.652344 583.1875 756.957031 583.1875 753.667969 L 583.1875 735.414062 L 694.050781 735.5625 C 694.050781 735.5625 694.050781 735.5625 694.199219 735.5625 C 712.453125 735.5625 729.65625 728.382812 742.675781 715.515625 C 755.691406 702.5 762.722656 685.292969 762.722656 667.042969 C 762.722656 652.078125 757.785156 637.417969 748.660156 625.449219 Z M 571.21875 532.242188 L 571.21875 723.746094 L 248.054688 723.746094 L 248.054688 532.242188 Z M 583.1875 579.964844 L 625.527344 639.960938 L 583.1875 639.960938 Z M 236.085938 639.960938 L 193.746094 639.960938 L 236.085938 579.964844 Z M 398.714844 520.269531 L 375.824219 448.457031 L 387.941406 448.457031 L 404.25 481.074219 C 405.296875 483.167969 407.394531 484.363281 409.636719 484.363281 C 411.882812 484.363281 413.976562 483.019531 415.023438 481.074219 L 431.332031 448.457031 L 443.449219 448.457031 L 420.558594 520.269531 Z M 379.714844 328.019531 C 379.714844 315.300781 390.1875 304.828125 402.90625 304.828125 L 445.84375 304.828125 C 458.859375 304.828125 469.480469 315.453125 469.480469 328.46875 L 469.480469 346.722656 C 451.976562 346.121094 434.773438 341.335938 419.511719 332.808594 L 412.628906 328.917969 C 410.832031 327.871094 408.441406 327.871094 406.644531 328.917969 C 404.847656 329.964844 403.652344 331.910156 403.652344 334.003906 L 403.652344 340.585938 C 403.652344 345.523438 402.457031 350.160156 400.210938 354.351562 C 397.519531 353.304688 394.527344 352.707031 391.535156 352.707031 C 387.195312 352.707031 383.15625 353.902344 379.714844 355.847656 Z M 379.714844 376.644531 C 379.714844 370.210938 385.101562 364.824219 391.535156 364.824219 C 394.078125 364.824219 396.621094 365.570312 398.714844 367.21875 C 401.410156 369.164062 405.148438 368.714844 407.09375 366.019531 C 412.03125 359.585938 414.875 352.105469 415.472656 344.175781 C 424.898438 349.265625 435.070312 353.003906 445.542969 355.398438 L 445.542969 394.597656 C 445.542969 404.472656 437.464844 412.550781 427.589844 412.550781 C 424.148438 412.550781 420.859375 411.953125 417.566406 410.90625 C 414.425781 409.855469 410.984375 411.503906 409.9375 414.496094 C 408.890625 417.636719 410.535156 421.078125 413.527344 422.125 C 416.070312 423.023438 418.761719 423.621094 421.457031 424.070312 L 421.457031 441.125 L 409.488281 465.0625 L 397.519531 441.125 L 397.519531 394.597656 C 397.519531 391.304688 394.675781 388.613281 391.382812 388.613281 C 385.101562 388.613281 379.714844 383.226562 379.714844 376.644531 Z M 125.074219 723.746094 C 93.953125 723.746094 68.519531 698.308594 68.519531 667.191406 C 68.519531 654.773438 72.710938 642.65625 80.191406 632.78125 L 195.992188 481.371094 C 211.699219 460.726562 236.683594 448.457031 262.566406 448.457031 L 363.40625 448.457031 L 386.296875 520.269531 L 353.53125 520.269531 L 361.164062 505.011719 C 362.058594 503.214844 362.058594 500.972656 360.863281 499.175781 C 359.816406 497.378906 357.871094 496.332031 355.777344 496.332031 L 340.066406 496.332031 L 349.34375 468.355469 C 350.390625 465.214844 348.746094 461.773438 345.601562 460.726562 C 342.460938 459.679688 339.019531 461.324219 337.972656 464.464844 L 326.003906 500.371094 C 325.40625 502.167969 325.703125 504.261719 326.75 505.757812 C 327.949219 507.253906 329.742188 508.300781 331.539062 508.300781 L 345.753906 508.300781 L 339.769531 520.269531 L 242.070312 520.269531 C 238.78125 520.269531 236.085938 522.964844 236.085938 526.253906 L 236.085938 559.320312 L 177.289062 642.503906 C 175.941406 644.300781 175.792969 646.695312 176.839844 648.640625 C 177.886719 650.582031 179.980469 651.929688 182.226562 651.929688 L 236.085938 651.929688 L 236.085938 723.445312 Z M 248.054688 747.683594 L 248.054688 735.714844 L 571.21875 735.714844 L 571.21875 747.683594 Z M 734.144531 707.136719 C 723.523438 717.757812 709.3125 723.746094 694.199219 723.746094 C 694.199219 723.746094 694.199219 723.746094 694.050781 723.746094 L 583.039062 723.59375 L 583.039062 651.929688 L 636.898438 651.929688 C 639.140625 651.929688 641.238281 650.734375 642.285156 648.640625 C 643.332031 646.695312 643.183594 644.300781 641.835938 642.503906 L 583.1875 559.320312 L 583.1875 526.253906 C 583.1875 522.964844 580.496094 520.269531 577.203125 520.269531 L 479.207031 520.269531 L 473.222656 508.300781 L 487.433594 508.300781 C 489.378906 508.300781 491.175781 507.40625 492.222656 505.757812 C 493.421875 504.261719 493.71875 502.167969 492.972656 500.371094 L 481.003906 464.464844 C 479.953125 461.324219 476.515625 459.679688 473.371094 460.726562 C 470.230469 461.773438 468.585938 465.214844 469.632812 468.355469 L 478.90625 496.332031 L 463.496094 496.332031 C 461.402344 496.332031 459.457031 497.378906 458.410156 499.175781 C 457.363281 500.972656 457.214844 503.214844 458.113281 505.011719 L 465.742188 520.269531 L 432.976562 520.269531 L 455.867188 448.457031 L 556.707031 448.457031 C 582.589844 448.457031 607.574219 460.726562 623.285156 481.371094 L 739.082031 632.78125 C 746.5625 642.65625 750.753906 654.773438 750.753906 667.191406 C 750.753906 682.300781 744.917969 696.515625 734.144531 707.136719 Z M 734.144531 707.136719 " fill-opacity="1" fill-rule="nonzero"/></g><path fill="#004aad" d="M 409.636719 639.960938 C 426.09375 639.960938 439.558594 626.496094 439.558594 610.039062 C 439.558594 593.582031 426.09375 580.117188 409.636719 580.117188 C 393.179688 580.117188 379.714844 593.582031 379.714844 610.039062 C 379.714844 626.496094 393.179688 639.960938 409.636719 639.960938 Z M 409.636719 592.085938 C 419.511719 592.085938 427.589844 600.164062 427.589844 610.039062 C 427.589844 619.914062 419.511719 627.992188 409.636719 627.992188 C 399.761719 627.992188 391.683594 619.914062 391.683594 610.039062 C 391.683594 600.164062 399.761719 592.085938 409.636719 592.085938 Z M 409.636719 592.085938 " fill-opacity="1" fill-rule="nonzero"/><path fill="#004aad" d="M 672.65625 283.585938 C 676.996094 286.726562 681.929688 288.222656 686.867188 288.222656 C 694.347656 288.222656 701.828125 284.78125 706.617188 278.199219 C 714.546875 267.277344 712.003906 252.164062 701.230469 244.238281 C 690.308594 236.308594 675.199219 238.851562 667.269531 249.621094 C 659.488281 260.542969 661.882812 275.804688 672.65625 283.585938 Z M 676.996094 256.652344 C 679.386719 253.363281 683.128906 251.566406 687.019531 251.566406 C 689.5625 251.566406 692.105469 252.316406 694.199219 253.960938 C 699.734375 258 700.933594 265.632812 696.894531 271.167969 C 692.851562 276.703125 685.222656 277.898438 679.6875 273.859375 C 674.152344 269.96875 672.953125 262.191406 676.996094 256.652344 Z M 676.996094 256.652344 " fill-opacity="1" fill-rule="nonzero"/><path fill="#004aad" d="M 567.328125 298.546875 C 564.933594 299.292969 563.140625 301.539062 563.140625 304.082031 C 562.988281 306.625 564.484375 309.019531 566.878906 309.917969 L 608.171875 326.523438 L 604.582031 348.21875 C 604.28125 350.460938 605.179688 352.707031 606.976562 354.050781 L 626.425781 368.117188 C 627.472656 368.863281 628.667969 369.3125 629.867188 369.3125 C 630.765625 369.3125 631.8125 369.164062 632.558594 368.5625 L 651.859375 358.539062 L 674.449219 388.015625 C 675.648438 389.511719 677.441406 390.40625 679.238281 390.40625 C 679.835938 390.40625 680.433594 390.257812 681.035156 390.109375 C 683.429688 389.359375 685.074219 387.265625 685.222656 384.722656 L 688.515625 328.765625 C 696.742188 320.390625 704.375 311.414062 711.40625 301.835938 L 713.050781 299.59375 C 734.746094 269.671875 749.40625 234.660156 755.390625 198.15625 L 758.53125 179.15625 C 759.132812 175.714844 757.785156 172.421875 754.941406 170.476562 C 752.101562 168.53125 748.507812 168.234375 745.515625 169.730469 L 728.460938 178.554688 C 695.695312 195.613281 666.96875 220.449219 645.277344 250.371094 L 643.632812 252.613281 C 637.046875 261.589844 631.214844 271.015625 625.976562 280.890625 Z M 618.945312 295.253906 C 616.101562 301.539062 613.558594 308.121094 611.316406 314.703125 L 587.226562 304.980469 Z M 630.464844 355.996094 L 617 346.273438 L 619.242188 333.105469 L 642.285156 349.863281 Z M 674.300781 367.816406 L 662.03125 351.957031 C 666.820312 348.367188 671.457031 344.625 675.796875 340.585938 Z M 745.816406 182.746094 L 743.722656 195.761719 C 743.421875 197.40625 743.125 199.203125 742.824219 200.847656 L 729.507812 191.273438 C 731.003906 190.375 732.5 189.628906 734.144531 188.878906 Z M 653.355469 259.347656 L 655 257.101562 C 672.058594 233.613281 693.75 213.265625 718.4375 197.855469 C 718.734375 198.15625 719.035156 198.453125 719.484375 198.753906 L 738.933594 212.816406 C 739.382812 213.117188 739.683594 213.265625 740.128906 213.417969 C 733.097656 241.691406 720.679688 268.625 703.625 292.113281 L 701.980469 294.355469 C 688.515625 313.058594 672.355469 329.367188 653.804688 343.128906 L 622.085938 320.089844 C 625.828125 309.167969 630.316406 298.394531 635.550781 288.222656 C 635.550781 288.222656 635.550781 288.222656 635.550781 288.074219 C 640.789062 278.199219 646.625 268.625 653.355469 259.347656 Z M 653.355469 259.347656 " fill-opacity="1" fill-rule="nonzero"/><path fill="#004aad" d="M 581.691406 409.410156 C 583.488281 410.753906 586.03125 410.90625 587.976562 409.855469 L 607.425781 399.683594 L 620.140625 414.945312 C 621.339844 416.289062 622.984375 417.039062 624.78125 417.039062 C 625.378906 417.039062 625.828125 417.039062 626.425781 416.890625 C 628.667969 416.289062 630.316406 414.34375 630.765625 412.101562 L 635.101562 385.621094 C 635.703125 382.328125 633.457031 379.335938 630.164062 378.738281 C 626.875 378.140625 623.882812 380.382812 623.285156 383.675781 L 621.039062 397.289062 L 613.558594 388.3125 C 611.761719 386.21875 608.769531 385.621094 606.226562 386.816406 L 593.0625 393.699219 L 595.457031 379.039062 C 595.90625 376.195312 594.410156 373.5 591.714844 372.453125 L 584.382812 369.613281 L 596.800781 365.722656 C 599.945312 364.675781 601.738281 361.382812 600.691406 358.242188 C 599.644531 355.097656 596.351562 353.304688 593.210938 354.351562 L 564.636719 363.179688 C 562.242188 363.925781 560.597656 366.171875 560.445312 368.714844 C 560.296875 371.257812 561.792969 373.5 564.1875 374.546875 L 582.589844 382.03125 L 579 403.722656 C 578.847656 405.816406 579.894531 408.0625 581.691406 409.410156 Z M 581.691406 409.410156 " fill-opacity="1" fill-rule="nonzero"/></svg>