<svg xmlns="http://www.w3.org/2000/svg" xmlns:xlink="http://www.w3.org/1999/xlink" width="1080" zoomAndPan="magnify" viewBox="0 0 810 809.999993" height="1080" preserveAspectRatio="xMidYMid meet" version="1.0"><defs><clipPath id="454199ba1d"><path d="M 74 645 L 585 645 L 585 784.007812 L 74 784.007812 Z M 74 645 " clip-rule="nonzero"/></clipPath><clipPath id="c3e6bda09e"><path d="M 167 645 L 185 645 L 185 784.007812 L 167 784.007812 Z M 167 645 " clip-rule="nonzero"/></clipPath><clipPath id="1a46b7f2b3"><path d="M 474 645 L 492 645 L 492 784.007812 L 474 784.007812 Z M 474 645 " clip-rule="nonzero"/></clipPath><clipPath id="2a41418814"><path d="M 261 400 L 771.308594 400 L 771.308594 540 L 261 540 Z M 261 400 " clip-rule="nonzero"/></clipPath><clipPath id="e3399f9c37"><path d="M 130 25.757812 L 283 25.757812 L 283 178 L 130 178 Z M 130 25.757812 " clip-rule="nonzero"/></clipPath></defs><rect x="-81" width="972" fill="#ffffff" y="-80.999999" height="971.999992" fill-opacity="1"/><rect x="-81" width="972" fill="#ffffff" y="-80.999999" height="971.999992" fill-opacity="1"/><g clip-path="url(#454199ba1d)"><path fill="#004aad" d="M 555.019531 784.195312 L 103.972656 784.195312 C 87.910156 784.195312 74.855469 771.136719 74.855469 755.078125 L 74.855469 674.523438 C 74.855469 658.460938 87.910156 645.40625 103.972656 645.40625 L 143.507812 645.40625 C 148.078125 645.40625 151.789062 649.113281 151.789062 653.683594 C 151.789062 658.253906 148.078125 661.964844 143.507812 661.964844 L 103.972656 661.964844 C 97.054688 661.964844 91.414062 667.585938 91.414062 674.523438 L 91.414062 755.078125 C 91.414062 761.996094 97.035156 767.636719 103.972656 767.636719 L 555.019531 767.636719 C 561.9375 767.636719 567.578125 762.011719 567.578125 755.078125 L 567.578125 674.523438 C 567.578125 667.605469 561.953125 661.964844 555.019531 661.964844 C 550.449219 661.964844 546.738281 658.253906 546.738281 653.683594 C 546.738281 649.113281 550.449219 645.40625 555.019531 645.40625 C 571.078125 645.40625 584.136719 658.460938 584.136719 674.523438 L 584.136719 755.078125 C 584.117188 771.136719 571.0625 784.195312 555.019531 784.195312 Z M 555.019531 784.195312 " fill-opacity="1" fill-rule="nonzero"/></g><g clip-path="url(#c3e6bda09e)"><path fill="#004aad" d="M 176.214844 784.195312 C 171.640625 784.195312 167.933594 780.488281 167.933594 775.917969 L 167.933594 653.703125 C 167.933594 649.128906 171.640625 645.421875 176.214844 645.421875 C 180.785156 645.421875 184.492188 649.128906 184.492188 653.703125 L 184.492188 775.917969 C 184.492188 780.488281 180.785156 784.195312 176.214844 784.195312 Z M 176.214844 784.195312 " fill-opacity="1" fill-rule="nonzero"/></g><g clip-path="url(#1a46b7f2b3)"><path fill="#004aad" d="M 482.777344 784.195312 C 478.207031 784.195312 474.496094 780.488281 474.496094 775.917969 L 474.496094 653.703125 C 474.496094 649.128906 478.207031 645.421875 482.777344 645.421875 C 487.347656 645.421875 491.054688 649.128906 491.054688 653.703125 L 491.054688 775.917969 C 491.054688 780.488281 487.347656 784.195312 482.777344 784.195312 Z M 482.777344 784.195312 " fill-opacity="1" fill-rule="nonzero"/></g><path fill="#004aad" d="M 293.476562 707.882812 L 228.617188 707.882812 C 224.046875 707.882812 220.339844 704.175781 220.339844 699.605469 C 220.339844 695.03125 224.046875 691.324219 228.617188 691.324219 L 293.476562 691.324219 C 298.046875 691.324219 301.757812 695.03125 301.757812 699.605469 C 301.757812 704.175781 298.046875 707.882812 293.476562 707.882812 Z M 293.476562 707.882812 " fill-opacity="1" fill-rule="nonzero"/><path fill="#004aad" d="M 430.371094 707.882812 L 365.511719 707.882812 C 360.941406 707.882812 357.234375 704.175781 357.234375 699.605469 C 357.234375 695.03125 360.941406 691.324219 365.511719 691.324219 L 430.371094 691.324219 C 434.941406 691.324219 438.652344 695.03125 438.652344 699.605469 C 438.652344 704.175781 434.941406 707.882812 430.371094 707.882812 Z M 430.371094 707.882812 " fill-opacity="1" fill-rule="nonzero"/><path fill="#004aad" d="M 293.476562 738.292969 L 228.617188 738.292969 C 224.046875 738.292969 220.339844 734.585938 220.339844 730.015625 C 220.339844 725.445312 224.046875 721.734375 228.617188 721.734375 L 293.476562 721.734375 C 298.046875 721.734375 301.757812 725.445312 301.757812 730.015625 C 301.757812 734.585938 298.046875 738.292969 293.476562 738.292969 Z M 293.476562 738.292969 " fill-opacity="1" fill-rule="nonzero"/><path fill="#004aad" d="M 430.371094 738.292969 L 365.511719 738.292969 C 360.941406 738.292969 357.234375 734.585938 357.234375 730.015625 C 357.234375 725.445312 360.941406 721.734375 365.511719 721.734375 L 430.371094 721.734375 C 434.941406 721.734375 438.652344 725.445312 438.652344 730.015625 C 438.652344 734.585938 434.941406 738.292969 430.371094 738.292969 Z M 430.371094 738.292969 " fill-opacity="1" fill-rule="nonzero"/><path fill="#004aad" d="M 594.554688 661.980469 L 143.523438 661.980469 C 127.464844 661.980469 114.40625 648.921875 114.40625 632.863281 L 114.40625 552.308594 C 114.40625 536.25 127.464844 523.191406 143.523438 523.191406 L 594.570312 523.191406 C 610.632812 523.191406 623.691406 536.25 623.691406 552.308594 L 623.691406 632.863281 C 623.671875 648.921875 610.613281 661.980469 594.554688 661.980469 Z M 143.523438 539.765625 C 136.609375 539.765625 130.96875 545.390625 130.96875 552.324219 L 130.96875 632.882812 C 130.96875 639.796875 136.589844 645.4375 143.523438 645.4375 L 594.570312 645.4375 C 601.488281 645.4375 607.128906 639.816406 607.128906 632.882812 L 607.128906 552.324219 C 607.128906 545.40625 601.507812 539.765625 594.570312 539.765625 Z M 143.523438 539.765625 " fill-opacity="1" fill-rule="nonzero"/><path fill="#004aad" d="M 215.75 661.980469 C 211.179688 661.980469 207.46875 658.273438 207.46875 653.703125 L 207.46875 531.488281 C 207.46875 526.917969 211.179688 523.207031 215.75 523.207031 C 220.320312 523.207031 224.03125 526.917969 224.03125 531.488281 L 224.03125 653.703125 C 224.03125 658.273438 220.320312 661.980469 215.75 661.980469 Z M 215.75 661.980469 " fill-opacity="1" fill-rule="nonzero"/><path fill="#004aad" d="M 522.3125 661.980469 C 517.742188 661.980469 514.03125 658.273438 514.03125 653.703125 L 514.03125 531.488281 C 514.03125 526.917969 517.742188 523.207031 522.3125 523.207031 C 526.882812 523.207031 530.59375 526.917969 530.59375 531.488281 L 530.59375 653.703125 C 530.59375 658.273438 526.902344 661.980469 522.3125 661.980469 Z M 522.3125 661.980469 " fill-opacity="1" fill-rule="nonzero"/><path fill="#004aad" d="M 333.03125 616.082031 L 268.171875 616.082031 C 263.601562 616.082031 259.890625 612.371094 259.890625 607.800781 C 259.890625 603.230469 263.601562 599.519531 268.171875 599.519531 L 333.03125 599.519531 C 337.601562 599.519531 341.3125 603.230469 341.3125 607.800781 C 341.3125 612.371094 337.601562 616.082031 333.03125 616.082031 Z M 333.03125 616.082031 " fill-opacity="1" fill-rule="nonzero"/><path fill="#004aad" d="M 469.90625 616.082031 L 405.050781 616.082031 C 400.476562 616.082031 396.769531 612.371094 396.769531 607.800781 C 396.769531 603.230469 400.476562 599.519531 405.050781 599.519531 L 469.90625 599.519531 C 474.480469 599.519531 478.1875 603.230469 478.1875 607.800781 C 478.1875 612.371094 474.496094 616.082031 469.90625 616.082031 Z M 469.90625 616.082031 " fill-opacity="1" fill-rule="nonzero"/><path fill="#004aad" d="M 333.03125 585.667969 L 268.171875 585.667969 C 263.601562 585.667969 259.890625 581.960938 259.890625 577.390625 C 259.890625 572.816406 263.601562 569.109375 268.171875 569.109375 L 333.03125 569.109375 C 337.601562 569.109375 341.3125 572.816406 341.3125 577.390625 C 341.3125 581.960938 337.601562 585.667969 333.03125 585.667969 Z M 333.03125 585.667969 " fill-opacity="1" fill-rule="nonzero"/><path fill="#004aad" d="M 469.90625 585.667969 L 405.050781 585.667969 C 400.476562 585.667969 396.769531 581.960938 396.769531 577.390625 C 396.769531 572.816406 400.476562 569.109375 405.050781 569.109375 L 469.90625 569.109375 C 474.480469 569.109375 478.1875 572.816406 478.1875 577.390625 C 478.1875 581.960938 474.496094 585.667969 469.90625 585.667969 Z M 469.90625 585.667969 " fill-opacity="1" fill-rule="nonzero"/><g clip-path="url(#2a41418814)"><path fill="#004aad" d="M 742.144531 539.765625 L 594.554688 539.765625 C 589.984375 539.765625 586.273438 536.058594 586.273438 531.488281 C 586.273438 526.917969 589.984375 523.207031 594.554688 523.207031 L 742.144531 523.207031 C 749.0625 523.207031 754.703125 517.582031 754.703125 510.648438 L 754.703125 430.09375 C 754.703125 423.175781 749.078125 417.535156 742.144531 417.535156 L 291.113281 417.535156 C 284.195312 417.535156 278.554688 423.160156 278.554688 430.09375 L 278.554688 510.648438 C 278.554688 517.566406 284.179688 523.207031 291.113281 523.207031 C 295.683594 523.207031 299.394531 526.914062 299.394531 531.488281 C 299.394531 536.058594 295.683594 539.765625 291.113281 539.765625 C 275.054688 539.765625 261.996094 526.707031 261.996094 510.648438 L 261.996094 430.09375 C 261.996094 414.035156 275.054688 400.976562 291.113281 400.976562 L 742.160156 400.976562 C 758.222656 400.976562 771.277344 414.035156 771.277344 430.09375 L 771.277344 510.648438 C 771.261719 526.710938 758.203125 539.765625 742.144531 539.765625 Z M 742.144531 539.765625 " fill-opacity="1" fill-rule="nonzero"/></g><path fill="#004aad" d="M 363.339844 539.765625 C 358.769531 539.765625 355.058594 536.058594 355.058594 531.488281 L 355.058594 409.273438 C 355.058594 404.703125 358.769531 400.992188 363.339844 400.992188 C 367.910156 400.992188 371.617188 404.703125 371.617188 409.273438 L 371.617188 531.488281 C 371.617188 536.058594 367.910156 539.765625 363.339844 539.765625 Z M 363.339844 539.765625 " fill-opacity="1" fill-rule="nonzero"/><path fill="#004aad" d="M 669.917969 539.765625 C 665.347656 539.765625 661.640625 536.058594 661.640625 531.488281 L 661.640625 409.273438 C 661.640625 404.703125 665.347656 400.992188 669.917969 400.992188 C 674.492188 400.992188 678.199219 404.703125 678.199219 409.273438 L 678.199219 531.488281 C 678.199219 536.058594 674.492188 539.765625 669.917969 539.765625 Z M 669.917969 539.765625 " fill-opacity="1" fill-rule="nonzero"/><path fill="#004aad" d="M 480.621094 463.4375 L 415.761719 463.4375 C 411.191406 463.4375 407.480469 459.726562 407.480469 455.15625 C 407.480469 450.585938 411.191406 446.878906 415.761719 446.878906 L 480.621094 446.878906 C 485.191406 446.878906 488.898438 450.585938 488.898438 455.15625 C 488.898438 459.726562 485.191406 463.4375 480.621094 463.4375 Z M 480.621094 463.4375 " fill-opacity="1" fill-rule="nonzero"/><path fill="#004aad" d="M 617.515625 463.4375 L 552.65625 463.4375 C 548.085938 463.4375 544.375 459.726562 544.375 455.15625 C 544.375 450.585938 548.085938 446.878906 552.65625 446.878906 L 617.515625 446.878906 C 622.085938 446.878906 625.792969 450.585938 625.792969 455.15625 C 625.792969 459.726562 622.085938 463.4375 617.515625 463.4375 Z M 617.515625 463.4375 " fill-opacity="1" fill-rule="nonzero"/><path fill="#004aad" d="M 480.621094 493.867188 L 415.761719 493.867188 C 411.191406 493.867188 407.480469 490.15625 407.480469 485.585938 C 407.480469 481.015625 411.191406 477.304688 415.761719 477.304688 L 480.621094 477.304688 C 485.191406 477.304688 488.898438 481.015625 488.898438 485.585938 C 488.898438 490.15625 485.191406 493.867188 480.621094 493.867188 Z M 480.621094 493.867188 " fill-opacity="1" fill-rule="nonzero"/><path fill="#004aad" d="M 617.515625 493.867188 L 552.65625 493.867188 C 548.085938 493.867188 544.375 490.15625 544.375 485.585938 C 544.375 481.015625 548.085938 477.304688 552.65625 477.304688 L 617.515625 477.304688 C 622.085938 477.304688 625.792969 481.015625 625.792969 485.585938 C 625.792969 490.15625 622.085938 493.867188 617.515625 493.867188 Z M 617.515625 493.867188 " fill-opacity="1" fill-rule="nonzero"/><path fill="#004aad" d="M 184.132812 539.765625 C 180.765625 539.765625 177.886719 537.765625 176.574219 534.886719 C 175.28125 537.765625 172.382812 539.765625 169.019531 539.765625 C 155.273438 539.765625 144.078125 528.570312 144.078125 514.824219 L 144.078125 255.230469 C 144.078125 252.074219 142.628906 249.558594 139.886719 247.96875 C 137.144531 246.382812 134.246094 246.382812 131.503906 247.96875 L 120.753906 254.179688 C 117.753906 255.90625 116.253906 258.871094 116.617188 262.320312 L 125.328125 344.6875 C 126.257812 353.554688 122.738281 361.75 115.632812 367.148438 L 108.230469 372.789062 C 101.4375 377.964844 92.914062 379.308594 84.859375 376.480469 C 76.804688 373.652344 70.988281 367.285156 68.917969 359.007812 L 41.441406 248.96875 C 38.800781 238.429688 43.234375 227.496094 52.445312 221.75 L 143.957031 164.757812 C 148.027344 162.222656 152.339844 160.980469 157.136719 160.980469 L 306.898438 160.980469 C 310.054688 160.980469 312.574219 159.53125 314.160156 156.789062 L 335.203125 120.339844 C 342.085938 108.4375 357.351562 104.332031 369.273438 111.214844 L 382.347656 118.769531 C 394.25 125.652344 398.355469 140.933594 391.472656 152.835938 L 356.457031 213.488281 C 351.953125 221.300781 343.882812 225.960938 334.859375 225.960938 L 264.824219 225.960938 C 260.203125 225.960938 256.441406 229.71875 256.441406 234.34375 L 256.441406 247.882812 C 256.441406 252.507812 260.203125 256.265625 264.824219 256.265625 L 327.820312 256.265625 C 341.570312 256.265625 352.765625 267.460938 352.765625 281.210938 L 352.765625 392.625 C 352.765625 406.375 341.570312 417.570312 327.820312 417.570312 C 324.457031 417.570312 321.578125 415.570312 320.265625 412.6875 C 318.972656 415.570312 316.074219 417.570312 312.710938 417.570312 C 298.960938 417.570312 287.769531 406.375 287.769531 392.625 L 287.769531 329.628906 C 287.769531 325.007812 284.007812 321.246094 279.382812 321.246094 L 217.421875 321.246094 C 212.800781 321.246094 209.039062 325.007812 209.039062 329.628906 L 209.039062 514.839844 C 209.074219 528.570312 197.878906 539.765625 184.132812 539.765625 Z M 135.710938 230.253906 C 139.988281 230.253906 144.285156 231.375 148.183594 233.636719 C 155.996094 238.136719 160.652344 246.210938 160.652344 255.230469 L 160.652344 514.824219 C 160.652344 519.445312 164.414062 523.207031 169.039062 523.207031 C 172.402344 523.207031 175.28125 525.207031 176.59375 528.089844 C 177.886719 525.207031 180.785156 523.207031 184.148438 523.207031 C 188.769531 523.207031 192.53125 519.445312 192.53125 514.824219 L 192.53125 329.613281 C 192.53125 315.863281 203.726562 304.667969 217.476562 304.667969 L 279.4375 304.667969 C 293.183594 304.667969 304.378906 315.863281 304.378906 329.613281 L 304.378906 392.609375 C 304.378906 397.230469 308.140625 400.992188 312.761719 400.992188 C 316.125 400.992188 319.007812 402.992188 320.316406 405.875 C 321.613281 402.992188 324.507812 400.992188 327.875 400.992188 C 332.496094 400.992188 336.257812 397.230469 336.257812 392.609375 L 336.257812 281.191406 C 336.257812 276.570312 332.496094 272.808594 327.875 272.808594 L 264.878906 272.808594 C 251.128906 272.808594 239.933594 261.613281 239.933594 247.867188 L 239.933594 234.324219 C 239.933594 220.578125 251.128906 209.382812 264.878906 209.382812 L 334.910156 209.382812 C 338.066406 209.382812 340.585938 207.933594 342.171875 205.191406 L 377.191406 144.539062 C 379.503906 140.539062 378.121094 135.398438 374.121094 133.085938 L 361.042969 125.53125 C 357.042969 123.21875 351.902344 124.597656 349.589844 128.601562 L 328.546875 165.050781 C 324.042969 172.863281 315.972656 177.523438 306.949219 177.523438 L 157.1875 177.523438 C 155.480469 177.523438 154.203125 177.882812 152.753906 178.78125 L 61.242188 235.773438 C 58.050781 237.757812 56.636719 241.277344 57.550781 244.917969 L 85.066406 354.9375 C 85.789062 357.832031 87.601562 359.816406 90.414062 360.816406 C 93.242188 361.800781 95.882812 361.386719 98.261719 359.574219 L 105.660156 353.933594 C 108.109375 352.074219 109.25 349.449219 108.921875 346.398438 L 100.210938 264.03125 C 99.160156 254.09375 103.886719 244.8125 112.542969 239.8125 L 123.292969 233.601562 C 127.15625 231.375 131.433594 230.253906 135.710938 230.253906 Z M 135.710938 230.253906 " fill-opacity="1" fill-rule="nonzero"/><g clip-path="url(#e3399f9c37)"><path fill="#004aad" d="M 206.453125 177.539062 C 164.605469 177.539062 130.554688 143.488281 130.554688 101.640625 C 130.554688 59.792969 164.605469 25.742188 206.453125 25.742188 C 248.300781 25.742188 282.351562 59.792969 282.351562 101.640625 C 282.351562 143.488281 248.300781 177.539062 206.453125 177.539062 Z M 206.453125 42.316406 C 173.730469 42.316406 147.113281 68.933594 147.113281 101.65625 C 147.113281 134.378906 173.730469 160.996094 206.453125 160.996094 C 239.175781 160.996094 265.792969 134.378906 265.792969 101.65625 C 265.792969 68.933594 239.175781 42.316406 206.453125 42.316406 Z M 206.453125 42.316406 " fill-opacity="1" fill-rule="nonzero"/></g><path fill="#004aad" d="M 569.527344 285.144531 C 532.042969 285.144531 501.542969 254.644531 501.542969 217.160156 C 501.542969 179.679688 532.042969 149.179688 569.527344 149.179688 C 607.007812 149.179688 637.507812 179.679688 637.507812 217.160156 C 637.488281 254.644531 606.992188 285.144531 569.527344 285.144531 Z M 569.527344 165.757812 C 541.167969 165.757812 518.105469 188.820312 518.105469 217.179688 C 518.105469 245.539062 541.167969 268.601562 569.527344 268.601562 C 597.882812 268.601562 620.945312 245.539062 620.945312 217.179688 C 620.929688 188.820312 597.867188 165.757812 569.527344 165.757812 Z M 569.527344 165.757812 " fill-opacity="1" fill-rule="nonzero"/><path fill="#004aad" d="M 600.902344 362.335938 L 538.113281 362.335938 C 533.542969 362.335938 529.832031 358.628906 529.832031 354.054688 L 529.832031 319.417969 C 528.296875 318.816406 526.761719 318.195312 525.246094 317.519531 L 500.75 342.015625 C 497.523438 345.257812 492.28125 345.257812 489.039062 342.015625 L 444.671875 297.613281 C 441.445312 294.390625 441.445312 289.144531 444.671875 285.902344 L 469.167969 261.40625 C 468.492188 259.890625 467.871094 258.371094 467.269531 256.835938 L 432.632812 256.835938 C 428.058594 256.835938 424.351562 253.128906 424.351562 248.554688 L 424.351562 185.765625 C 424.351562 181.195312 428.058594 177.488281 432.632812 177.488281 L 467.269531 177.488281 C 467.871094 175.953125 468.492188 174.417969 469.167969 172.917969 L 444.671875 148.421875 C 441.445312 145.195312 441.445312 139.953125 444.671875 136.707031 L 489.074219 92.308594 C 490.625 90.753906 492.730469 89.875 494.921875 89.875 C 497.109375 89.875 499.214844 90.753906 500.769531 92.308594 L 525.261719 116.800781 C 526.78125 116.128906 528.296875 115.507812 529.832031 114.90625 L 529.832031 80.285156 C 529.832031 75.714844 533.542969 72.003906 538.113281 72.003906 L 600.902344 72.003906 C 605.472656 72.003906 609.183594 75.714844 609.183594 80.285156 L 609.183594 114.921875 C 610.71875 115.527344 612.253906 116.148438 613.753906 116.820312 L 638.25 92.324219 C 641.492188 89.082031 646.71875 89.082031 649.960938 92.324219 L 694.363281 136.726562 C 695.914062 138.277344 696.792969 140.382812 696.792969 142.574219 C 696.792969 144.765625 695.914062 146.867188 694.363281 148.421875 L 669.867188 172.917969 C 670.539062 174.433594 671.160156 175.953125 671.765625 177.488281 L 706.402344 177.488281 C 710.972656 177.488281 714.683594 181.195312 714.683594 185.765625 L 714.683594 248.554688 C 714.683594 253.128906 710.972656 256.835938 706.402344 256.835938 L 671.765625 256.835938 C 671.160156 258.371094 670.539062 259.90625 669.867188 261.40625 L 694.363281 285.902344 C 697.585938 289.128906 697.585938 294.371094 694.363281 297.613281 L 649.960938 342.015625 C 648.410156 343.566406 646.304688 344.449219 644.113281 344.449219 C 641.921875 344.449219 639.816406 343.566406 638.265625 342.015625 L 613.769531 317.519531 C 612.253906 318.195312 610.734375 318.816406 609.199219 319.417969 L 609.199219 354.054688 C 609.183594 358.628906 605.472656 362.335938 600.902344 362.335938 Z M 546.410156 345.777344 L 592.640625 345.777344 L 592.640625 313.589844 C 592.640625 310 594.953125 306.824219 598.367188 305.722656 C 602.9375 304.238281 607.441406 302.359375 611.753906 300.167969 C 614.945312 298.546875 618.824219 299.148438 621.359375 301.6875 L 644.128906 324.457031 L 676.820312 291.765625 L 654.050781 268.996094 C 651.515625 266.460938 650.894531 262.582031 652.53125 259.390625 C 654.722656 255.078125 656.601562 250.574219 658.085938 246.003906 C 659.191406 242.589844 662.382812 240.292969 665.953125 240.292969 L 698.140625 240.292969 L 698.140625 194.0625 L 665.953125 194.0625 C 662.363281 194.0625 659.191406 191.753906 658.085938 188.355469 C 656.601562 183.785156 654.722656 179.28125 652.53125 174.96875 C 650.910156 171.777344 651.515625 167.894531 654.050781 165.359375 L 676.820312 142.589844 L 644.128906 109.902344 L 621.359375 132.671875 C 618.824219 135.207031 614.945312 135.828125 611.734375 134.191406 C 607.421875 132 602.921875 130.121094 598.351562 128.636719 C 594.933594 127.53125 592.640625 124.339844 592.640625 120.769531 L 592.640625 88.566406 L 546.410156 88.566406 L 546.410156 120.753906 C 546.410156 124.339844 544.097656 127.515625 540.699219 128.617188 C 536.128906 130.101562 531.628906 131.980469 527.316406 134.171875 C 524.125 135.792969 520.242188 135.191406 517.707031 132.65625 L 494.9375 109.886719 L 462.25 142.574219 L 485.019531 165.34375 C 487.554688 167.878906 488.175781 171.761719 486.535156 174.953125 C 484.347656 179.246094 482.484375 183.765625 480.980469 188.335938 C 479.878906 191.753906 476.6875 194.046875 473.117188 194.046875 L 440.929688 194.046875 L 440.929688 240.277344 L 473.117188 240.277344 C 476.703125 240.277344 479.878906 242.589844 480.980469 245.984375 C 482.464844 250.558594 484.347656 255.058594 486.535156 259.371094 C 488.160156 262.5625 487.554688 266.445312 485.019531 268.980469 L 462.25 291.75 L 494.9375 324.4375 L 517.707031 301.667969 C 520.242188 299.132812 524.125 298.511719 527.332031 300.152344 C 531.628906 302.339844 536.128906 304.203125 540.71875 305.703125 C 544.132812 306.808594 546.429688 310 546.429688 313.570312 L 546.429688 345.777344 Z M 546.410156 345.777344 " fill-opacity="1" fill-rule="nonzero"/></svg>