<svg xmlns="http://www.w3.org/2000/svg" xmlns:xlink="http://www.w3.org/1999/xlink" width="1080" zoomAndPan="magnify" viewBox="0 0 810 809.999993" height="1080" preserveAspectRatio="xMidYMid meet" version="1.0"><defs><clipPath id="b638de9e15"><path d="M 26.648438 31.902344 L 783.398438 31.902344 L 783.398438 788.652344 L 26.648438 788.652344 Z M 26.648438 31.902344 " clip-rule="nonzero"/></clipPath></defs><rect x="-81" width="972" fill="#ffffff" y="-80.999999" height="971.999992" fill-opacity="1"/><rect x="-81" width="972" fill="#ffffff" y="-80.999999" height="971.999992" fill-opacity="1"/><g clip-path="url(#b638de9e15)"><path fill="#004aad" d="M 59.546875 31.902344 C 41.554688 31.902344 26.816406 46.640625 26.816406 64.636719 L 26.816406 224.851562 C 26.816406 242.84375 41.554688 257.582031 59.546875 257.582031 L 272.59375 257.582031 C 290.585938 257.582031 305.324219 242.84375 305.324219 224.851562 L 305.324219 64.636719 C 305.324219 46.640625 290.585938 31.902344 272.59375 31.902344 Z M 463.035156 31.902344 C 452.996094 31.902344 444.714844 40.183594 444.714844 50.222656 L 444.714844 239.265625 C 444.714844 249.304688 452.996094 257.582031 463.035156 257.582031 L 764.640625 257.582031 C 774.683594 257.582031 782.960938 249.304688 782.960938 239.265625 C 783.25 175.933594 782.960938 113.308594 782.960938 50.222656 C 782.960938 40.183594 774.683594 31.902344 764.640625 31.902344 Z M 59.546875 45.179688 L 272.59375 45.179688 C 283.402344 45.179688 292.050781 53.828125 292.050781 64.636719 L 292.050781 224.851562 C 292.050781 235.660156 283.402344 244.308594 272.59375 244.308594 L 59.546875 244.308594 C 48.738281 244.308594 40.089844 235.660156 40.089844 224.851562 L 40.089844 64.636719 C 40.089844 53.828125 48.738281 45.179688 59.546875 45.179688 Z M 463.035156 45.179688 L 764.640625 45.179688 C 767.496094 45.179688 769.6875 47.367188 769.6875 50.222656 L 769.6875 118.191406 L 457.992188 118.191406 L 457.992188 50.222656 C 457.992188 47.367188 460.179688 45.179688 463.035156 45.179688 Z M 495.628906 63.148438 C 484.839844 63.148438 475.953125 72.039062 475.953125 82.828125 C 475.953125 93.914062 485.855469 102.265625 495.628906 102.507812 L 624.167969 102.507812 C 637.019531 102.507812 643.84375 92.359375 643.84375 82.828125 C 643.84375 72.039062 634.957031 63.148438 624.167969 63.148438 Z M 684.886719 63.960938 C 673.839844 63.960938 664.710938 73.035156 664.710938 84.085938 C 664.710938 95.132812 673.839844 104.207031 684.886719 104.207031 C 695.941406 104.207031 705.070312 95.132812 705.070312 84.085938 C 705.070312 73.035156 695.941406 63.960938 684.886719 63.960938 Z M 737.988281 63.960938 C 726.941406 63.960938 717.8125 73.035156 717.8125 84.085938 C 717.8125 95.132812 726.941406 104.207031 737.988281 104.207031 C 749.042969 104.207031 758.167969 95.132812 758.167969 84.085938 C 758.167969 73.035156 749.042969 63.960938 737.988281 63.960938 Z M 495.628906 76.425781 L 624.167969 76.425781 C 627.769531 76.425781 630.570312 79.222656 630.570312 82.828125 C 630.570312 86.429688 627.769531 89.230469 624.167969 89.230469 L 495.628906 89.230469 C 492.023438 89.230469 489.230469 86.429688 489.230469 82.828125 C 489.230469 79.222656 492.023438 76.425781 495.628906 76.425781 Z M 684.886719 77.238281 C 688.792969 77.238281 691.792969 80.238281 691.792969 84.085938 C 691.792969 87.929688 688.792969 90.933594 684.886719 90.933594 C 680.984375 90.933594 677.988281 87.929688 677.988281 84.085938 C 677.988281 80.238281 680.984375 77.238281 684.886719 77.238281 Z M 737.988281 77.238281 C 741.894531 77.238281 744.894531 80.238281 744.894531 84.085938 C 744.894531 87.929688 741.894531 90.933594 737.988281 90.933594 C 734.085938 90.933594 731.089844 87.929688 731.089844 84.085938 C 731.089844 80.238281 734.085938 77.238281 737.988281 77.238281 Z M 142.101562 87.757812 C 141.742188 87.769531 141.382812 87.800781 141.019531 87.855469 C 140.054688 88.003906 139.085938 88.308594 138.140625 88.8125 C 134.363281 90.835938 133.019531 94.953125 133.019531 98.28125 L 133.019531 191.207031 C 133.019531 194.53125 134.363281 198.652344 138.140625 200.671875 C 141.921875 202.695312 146.09375 201.53125 148.859375 199.683594 L 217.46875 153.949219 C 220.371094 152.011719 222.707031 148.605469 222.707031 144.742188 C 222.707031 140.878906 220.371094 137.472656 217.46875 135.539062 L 148.859375 89.800781 C 147.042969 88.589844 144.621094 87.675781 142.101562 87.757812 Z M 146.292969 104.046875 L 207.339844 144.742188 L 146.292969 185.441406 Z M 457.992188 131.46875 L 769.6875 131.46875 L 769.6875 239.265625 C 769.6875 242.121094 767.496094 244.308594 764.640625 244.308594 L 463.035156 244.308594 C 460.179688 244.308594 457.992188 242.121094 457.992188 239.265625 Z M 487.6875 158.941406 C 478.710938 158.8125 478.710938 172.339844 487.6875 172.214844 L 656.417969 172.214844 C 665.394531 172.339844 665.394531 158.8125 656.417969 158.941406 Z M 487.6875 202.085938 C 478.710938 201.957031 478.710938 215.484375 487.6875 215.359375 L 696.246094 215.359375 C 705.222656 215.484375 705.222656 201.957031 696.246094 202.085938 Z M 179.585938 284.132812 C 171.34375 284.132812 164.527344 290.953125 164.527344 299.195312 L 164.527344 344.738281 C 164.527344 346.535156 164.738281 348.304688 165.527344 350.15625 C 166.320312 352.007812 167.949219 354.078125 170.371094 355.082031 C 172.789062 356.085938 175.40625 355.769531 177.273438 355.019531 C 179.144531 354.269531 180.542969 353.167969 181.816406 351.898438 L 188.277344 345.4375 L 216.0625 373.21875 C 221.089844 378.246094 229.433594 378.246094 234.460938 373.21875 L 253.609375 354.066406 C 258.640625 349.035156 258.640625 340.695312 253.609375 335.667969 L 225.828125 307.882812 L 232.292969 301.421875 C 233.5625 300.152344 234.660156 298.75 235.410156 296.878906 C 236.160156 295.011719 236.472656 292.394531 235.472656 289.976562 C 234.46875 287.554688 232.398438 285.925781 230.546875 285.132812 C 228.695312 284.34375 226.925781 284.132812 225.128906 284.132812 Z M 405.160156 284.132812 C 375.914062 284.132812 352.058594 307.984375 352.058594 337.234375 C 352.058594 366.484375 375.914062 390.335938 405.160156 390.335938 C 434.410156 390.335938 458.261719 366.484375 458.261719 337.234375 C 458.261719 307.984375 434.410156 284.132812 405.160156 284.132812 Z M 575.160156 284.132812 C 573.363281 284.132812 571.59375 284.34375 569.742188 285.132812 C 567.890625 285.925781 565.820312 287.558594 564.816406 289.976562 C 563.8125 292.398438 564.128906 295.011719 564.875 296.878906 C 565.625 298.75 566.726562 300.148438 568 301.417969 C 570.148438 303.574219 572.308594 305.730469 574.460938 307.886719 L 546.679688 335.667969 C 541.652344 340.695312 541.652344 349.035156 546.679688 354.066406 L 565.828125 373.21875 C 570.855469 378.246094 579.203125 378.246094 584.230469 373.21875 L 612.011719 345.4375 L 618.476562 351.898438 C 619.746094 353.167969 621.144531 354.269531 623.015625 355.019531 C 624.882812 355.769531 627.5 356.085938 629.921875 355.082031 C 632.339844 354.078125 633.972656 352.007812 634.765625 350.15625 C 635.554688 348.304688 635.765625 346.535156 635.765625 344.738281 L 635.765625 299.195312 C 635.765625 290.953125 628.945312 284.132812 620.703125 284.132812 Z M 179.585938 297.410156 L 217.527344 297.410156 L 211.746094 303.191406 C 209.15625 305.78125 209.15625 309.984375 211.746094 312.578125 L 244.03125 344.867188 L 225.261719 363.644531 L 192.972656 331.351562 C 190.378906 328.761719 186.179688 328.761719 183.585938 331.351562 L 177.800781 337.132812 L 177.800781 299.195312 C 177.800781 298.136719 178.527344 297.410156 179.585938 297.410156 Z M 405.160156 297.410156 C 427.234375 297.410156 444.988281 315.160156 444.988281 337.234375 C 444.988281 359.308594 427.234375 377.0625 405.160156 377.0625 C 383.089844 377.0625 365.335938 359.308594 365.335938 337.234375 C 365.335938 315.160156 383.089844 297.410156 405.160156 297.410156 Z M 582.761719 297.410156 L 620.703125 297.410156 C 621.757812 297.410156 622.488281 298.140625 622.488281 299.195312 L 622.488281 337.132812 L 616.703125 331.351562 C 614.113281 328.761719 609.910156 328.761719 607.320312 331.351562 L 575.03125 363.644531 L 556.253906 344.867188 L 588.546875 312.578125 C 591.136719 309.984375 591.136719 305.78125 588.546875 303.191406 Z M 405.164062 403.613281 C 345.710938 403.613281 292.320312 445.703125 292.320312 516.453125 C 292.320312 520.117188 295.292969 523.089844 298.960938 523.089844 L 511.363281 523.089844 C 515.03125 523.089844 518 520.117188 518 516.453125 C 518 480.550781 504.777344 451.976562 483.917969 432.746094 C 463.0625 413.515625 434.847656 403.613281 405.164062 403.613281 Z M 405.164062 416.886719 C 431.898438 416.886719 456.785156 425.789062 474.921875 442.511719 C 491.792969 458.066406 502.933594 480.46875 504.425781 509.8125 L 305.898438 509.8125 C 309.011719 449.855469 353.675781 416.886719 405.164062 416.886719 Z M 216.0625 447.246094 L 188.277344 475.03125 L 181.816406 468.5625 C 180.542969 467.292969 179.144531 466.195312 177.273438 465.445312 C 175.40625 464.695312 172.789062 464.378906 170.367188 465.382812 C 167.945312 466.386719 166.320312 468.457031 165.527344 470.308594 C 164.738281 472.160156 164.527344 473.929688 164.527344 475.726562 L 164.527344 521.273438 C 164.527344 529.511719 171.34375 536.328125 179.585938 536.328125 L 225.128906 536.328125 C 226.925781 536.328125 228.695312 536.117188 230.546875 535.328125 C 232.398438 534.539062 234.46875 532.90625 235.472656 530.488281 C 236.472656 528.070312 236.160156 525.449219 235.410156 523.582031 C 234.660156 521.714844 233.5625 520.316406 232.292969 519.042969 C 230.140625 516.886719 227.980469 514.730469 225.824219 512.578125 L 253.609375 484.792969 C 258.496094 479.914062 259.035156 472.175781 253.609375 466.398438 L 234.460938 447.246094 C 228.921875 442.429688 221.234375 442.234375 216.0625 447.246094 Z M 565.828125 447.246094 L 546.679688 466.398438 C 541.050781 472.027344 542.5625 480.410156 546.675781 484.792969 L 574.464844 512.578125 L 568 519.042969 C 566.691406 520.550781 565.496094 522.082031 564.875 523.582031 C 564.128906 525.449219 563.816406 528.070312 564.816406 530.488281 C 565.820312 532.910156 567.890625 534.535156 569.742188 535.328125 C 571.59375 536.117188 573.363281 536.328125 575.160156 536.328125 L 620.703125 536.328125 C 628.945312 536.328125 635.765625 529.515625 635.765625 521.273438 L 635.765625 475.726562 C 635.765625 473.929688 635.550781 472.160156 634.761719 470.308594 C 633.972656 468.457031 632.34375 466.386719 629.921875 465.382812 C 627.503906 464.378906 624.882812 464.695312 623.015625 465.445312 C 621.148438 466.195312 619.746094 467.292969 618.476562 468.5625 L 612.011719 475.03125 L 584.226562 447.246094 C 578.71875 442.382812 570.863281 442.367188 565.828125 447.246094 Z M 225.261719 456.824219 L 244.03125 475.597656 L 211.746094 507.886719 C 209.15625 510.476562 209.15625 514.679688 211.746094 517.269531 L 217.527344 523.050781 L 179.585938 523.050781 C 178.527344 523.050781 177.800781 522.328125 177.800781 521.273438 L 177.800781 483.328125 L 183.585938 489.109375 C 186.179688 491.703125 190.378906 491.703125 192.972656 489.109375 Z M 575.03125 456.824219 L 607.320312 489.109375 C 609.910156 491.703125 614.113281 491.703125 616.703125 489.109375 L 622.488281 483.328125 L 622.488281 521.273438 C 622.488281 522.324219 621.757812 523.050781 620.703125 523.050781 L 582.761719 523.050781 L 588.546875 517.269531 C 591.136719 514.679688 591.136719 510.476562 588.546875 507.886719 L 556.253906 475.597656 Z M 45.132812 562.914062 C 35.09375 562.914062 26.816406 571.191406 26.816406 581.234375 L 26.816406 770.277344 C 26.816406 780.316406 35.09375 788.59375 45.132812 788.59375 L 346.746094 788.59375 C 356.785156 788.59375 365.0625 780.316406 365.0625 770.277344 C 365.351562 706.945312 365.0625 644.320312 365.0625 581.234375 C 365.0625 571.191406 356.785156 562.914062 346.746094 562.914062 Z M 537.457031 562.914062 C 519.464844 562.914062 504.726562 577.652344 504.726562 595.648438 L 504.726562 755.863281 C 504.726562 773.855469 519.464844 788.59375 537.457031 788.59375 L 750.503906 788.59375 C 768.496094 788.59375 783.234375 773.855469 783.234375 755.863281 L 783.234375 595.648438 C 783.234375 577.652344 768.496094 562.914062 750.503906 562.914062 Z M 45.132812 576.191406 L 346.746094 576.191406 C 349.597656 576.191406 351.789062 578.378906 351.789062 581.234375 L 351.789062 649.203125 L 40.089844 649.203125 L 40.089844 581.234375 C 40.089844 578.378906 42.28125 576.191406 45.132812 576.191406 Z M 537.457031 576.191406 L 750.503906 576.191406 C 761.3125 576.191406 769.960938 584.839844 769.960938 595.648438 L 769.960938 755.863281 C 769.960938 766.671875 761.3125 775.320312 750.503906 775.320312 L 537.457031 775.320312 C 526.648438 775.320312 518 766.671875 518 755.863281 L 518 595.648438 C 518 584.839844 526.648438 576.191406 537.457031 576.191406 Z M 77.734375 594.160156 C 66.945312 594.160156 58.054688 603.050781 58.054688 613.839844 C 58.054688 625.382812 69.3125 633.308594 77.734375 633.519531 L 206.269531 633.519531 C 219.070312 633.519531 225.945312 624.492188 225.945312 613.839844 C 225.945312 603.050781 217.058594 594.160156 206.269531 594.160156 Z M 266.988281 594.972656 C 255.9375 594.972656 246.8125 604.046875 246.8125 615.09375 C 246.8125 626.144531 255.9375 635.21875 266.988281 635.21875 C 278.039062 635.21875 287.167969 626.144531 287.167969 615.09375 C 287.167969 604.046875 278.039062 594.972656 266.988281 594.972656 Z M 320.089844 594.972656 C 309.039062 594.972656 299.914062 604.046875 299.914062 615.09375 C 299.914062 626.144531 309.039062 635.21875 320.089844 635.21875 C 331.140625 635.21875 340.269531 626.144531 340.269531 615.09375 C 340.269531 604.046875 331.140625 594.972656 320.089844 594.972656 Z M 728.292969 598.515625 C 719.792969 598.515625 712.902344 605.402344 712.902344 613.902344 C 712.902344 622.402344 719.792969 629.292969 728.292969 629.292969 C 736.792969 629.292969 743.679688 622.402344 743.679688 613.902344 C 743.679688 605.402344 736.792969 598.515625 728.292969 598.515625 Z M 77.734375 607.4375 L 206.269531 607.4375 C 209.871094 607.4375 212.667969 610.234375 212.667969 613.839844 C 212.667969 617.441406 209.871094 620.242188 206.269531 620.242188 L 77.734375 620.242188 C 74.128906 620.242188 71.328125 617.441406 71.328125 613.839844 C 71.328125 610.234375 74.128906 607.4375 77.734375 607.4375 Z M 266.988281 608.25 C 270.894531 608.25 273.890625 611.25 273.890625 615.09375 C 273.890625 618.941406 270.894531 621.945312 266.988281 621.945312 C 263.085938 621.945312 260.085938 618.941406 260.085938 615.09375 C 260.085938 611.25 263.085938 608.25 266.988281 608.25 Z M 320.089844 608.25 C 323.996094 608.25 326.992188 611.25 326.992188 615.09375 C 326.992188 618.941406 323.996094 621.945312 320.089844 621.945312 C 316.183594 621.945312 313.1875 618.941406 313.1875 615.09375 C 313.1875 611.25 316.183594 608.25 320.089844 608.25 Z M 648.042969 622.652344 C 617.300781 622.652344 592.234375 647.71875 592.234375 678.464844 C 592.234375 709.210938 617.300781 734.277344 648.042969 734.277344 C 678.789062 734.277344 703.855469 709.210938 703.855469 678.464844 C 703.855469 647.71875 678.789062 622.652344 648.042969 622.652344 Z M 648.042969 635.929688 C 671.613281 635.929688 690.582031 654.894531 690.582031 678.464844 C 690.582031 702.035156 671.613281 721 648.042969 721 C 624.472656 721 605.507812 702.035156 605.507812 678.464844 C 605.507812 654.894531 624.472656 635.929688 648.042969 635.929688 Z M 40.089844 662.480469 L 351.789062 662.480469 L 351.789062 770.277344 C 351.789062 773.128906 349.597656 775.320312 346.746094 775.320312 L 45.132812 775.320312 C 42.28125 775.320312 40.089844 773.128906 40.089844 770.277344 Z M 69.785156 689.949219 C 60.808594 689.824219 60.808594 703.351562 69.785156 703.226562 L 238.519531 703.226562 C 247.496094 703.351562 247.496094 689.824219 238.519531 689.949219 Z M 69.785156 733.097656 C 60.808594 732.96875 60.808594 746.496094 69.785156 746.371094 L 278.347656 746.371094 C 287.320312 746.496094 287.320312 732.96875 278.347656 733.097656 Z M 69.785156 733.097656 " fill-opacity="1" fill-rule="nonzero"/></g></svg>